<svg width="157" height="45" viewBox="0 0 157 45" fill="none" xmlns="http://www.w3.org/2000/svg">
<rect x="112" width="45" height="45" rx="22.5" fill="white"/>
<g clip-path="url(#clip0_3559_4728)">
<path d="M129.502 31.7306H125.315V18.2494H129.502V31.7306ZM127.406 16.4104C126.068 16.4104 124.981 15.3013 124.981 13.9628C124.981 13.3198 125.237 12.7031 125.692 12.2485C126.146 11.7938 126.763 11.5383 127.406 11.5383C128.049 11.5383 128.666 11.7938 129.12 12.2485C129.575 12.7031 129.83 13.3198 129.83 13.9628C129.83 15.3013 128.744 16.4104 127.406 16.4104ZM145.169 31.7306H140.993V25.1681C140.993 23.604 140.961 21.5984 138.816 21.5984C136.64 21.5984 136.306 23.2975 136.306 25.0556V31.7306H132.124V18.2494H136.138V20.0883H136.197C136.756 19.029 138.121 17.9112 140.157 17.9112C144.394 17.9112 145.173 20.7013 145.173 24.3251V31.7306H145.169Z" fill="black"/>
</g>
<rect x="56" width="45" height="45" rx="22.5" fill="white"/>
<g clip-path="url(#clip1_3559_4728)">
<path d="M78.5 12.2599C72.6994 12.2599 68 16.9633 68 22.7599C68 27.4016 71.0082 31.3358 75.1774 32.7238C75.7044 32.8229 75.8947 32.498 75.8947 32.2172C75.8947 31.9678 75.8888 31.3082 75.8848 30.4328C72.9626 31.0654 72.347 29.0212 72.347 29.0212C71.8686 27.8111 71.1782 27.4862 71.1782 27.4862C70.228 26.8372 71.2537 26.851 71.2537 26.851C72.3063 26.9225 72.8602 27.9305 72.8602 27.9305C73.7967 29.537 75.3172 29.0724 75.919 28.802C76.0108 28.1254 76.2845 27.6602 76.5824 27.4009C74.2514 27.1378 71.8003 26.2354 71.8003 22.212C71.8003 21.0629 72.2072 20.1271 72.8799 19.3921C72.7637 19.1289 72.408 18.0592 72.9724 16.6128C72.9724 16.6128 73.8511 16.3326 75.8599 17.6897C76.7156 17.457 77.5981 17.3377 78.4849 17.3347C79.3774 17.3406 80.2692 17.4574 81.1099 17.6897C83.1069 16.3326 83.9849 16.6128 83.9849 16.6128C84.5487 18.0592 84.193 19.1282 84.0906 19.3921C84.7567 20.1271 85.1636 21.0635 85.1636 22.212C85.1636 26.2446 82.7092 27.1338 80.3756 27.3904C80.7404 27.7048 81.0823 28.3512 81.0823 29.3323C81.0823 30.7367 81.0692 31.868 81.0692 32.2099C81.0692 32.4829 81.253 32.8111 81.7937 32.7054C85.9937 31.3319 88.9987 27.3944 88.9987 22.7593C88.9987 16.9626 84.2993 12.2593 78.4987 12.2593L78.5 12.2599Z" fill="black"/>
</g>
<rect width="45" height="45" rx="22.5" fill="white"/>
<path d="M22.1936 25.7489C21.7539 26.44 21.3321 27.1161 20.3868 27.7729C19.8811 28.1273 18.7173 28.8198 17.063 28.8198C13.9068 28.8198 11.3594 26.5252 11.3594 22.4911C11.3594 18.9653 13.7557 16.1802 17.1303 16.1802C18.4975 16.1802 19.7121 16.6528 20.6067 17.3618C21.4339 18.0199 21.8213 18.6782 22.1593 19.269L19.7973 20.4492C19.6283 20.0617 19.4249 19.6564 18.9028 19.2181C18.3285 18.7619 17.7555 18.6273 17.2649 18.6273C15.3413 18.6273 14.3287 20.4163 14.3287 22.4072C14.3287 25.0234 15.6628 26.3219 17.2649 26.3219C18.8176 26.3219 19.4428 25.2419 19.8468 24.5508L22.1936 25.749V25.7489ZM30.468 16.5512H33.6406L29.5062 28.4654H26.4696L22.386 16.5512H25.5586L28.0222 25.0234L30.468 16.5512Z" fill="black"/>
<defs>
<clipPath id="clip0_3559_4728">
<rect width="23.0769" height="23.0769" fill="white" transform="translate(123.539 11.5383)"/>
</clipPath>
<clipPath id="clip1_3559_4728">
<rect width="21" height="21" fill="white" transform="translate(68 12)"/>
</clipPath>
</defs>
</svg>
